HIERARCHY
ROOT Hips
{
	OFFSET 0.000000 0.000000 0.000000 
	CHANNELS 6 Xposition Yposition Zposition Zrotation Yrotation Xrotation
	JOINT LeftUpLeg
	{
		OFFSET 1.363060 -1.794630 0.839290 
		CHANNELS 3 Zrotation Yrotation Xrotation
		JOINT LeftLeg
		{
			OFFSET 2.448110 -6.726130 0.000000 
			CHANNELS 3 Zrotation Yrotation Xrotation
			JOINT LeftFoot
			{
				OFFSET 2.562200 -7.039590 0.000000 
				CHANNELS 3 Zrotation Yrotation Xrotation
				JOINT LeftToeBase
				{
					OFFSET 0.157640 -0.433110 2.322550 
					CHANNELS 3 Zrotation Yrotation Xrotation
					End Site
					{
						OFFSET 0.000000 0.000000 0.000000 
					}
				}
			}
		}
	}
	JOINT RightUpLeg
	{
		OFFSET -1.305520 -1.794630 0.839290 
		CHANNELS 3 Zrotation Yrotation Xrotation
		JOINT RightLeg
		{
			OFFSET -2.542530 -6.985550 0.000000 
			CHANNELS 3 Zrotation Yrotation Xrotation
			JOINT RightFoot
			{
				OFFSET -2.568260 -7.056230 0.000000 
				CHANNELS 3 Zrotation Yrotation Xrotation
				JOINT RightToeBase
				{
					OFFSET -0.164730 -0.452590 2.363150 
					CHANNELS 3 Zrotation Yrotation Xrotation
					End Site
					{
						OFFSET 0.000000 0.000000 0.000000 
					}
				}
			}
		}
	}
	JOINT Spine
	{
		OFFSET 0.028270 2.035590 -0.193380 
		CHANNELS 3 Zrotation Yrotation Xrotation
		JOINT Spine1
		{
			OFFSET 0.056720 2.048850 -0.042750 
			CHANNELS 3 Zrotation Yrotation Xrotation
			JOINT Neck1
			{
				OFFSET -0.054170 1.746240 0.172020 
				CHANNELS 3 Zrotation Yrotation Xrotation
				JOINT Head
				{
					OFFSET 0.104070 1.761360 -0.123970 
					CHANNELS 3 Zrotation Yrotation Xrotation
					End Site
					{
						OFFSET 0.000000 0.000000 0.000000 
					}
				}
			}
			JOINT LeftArm
			{
				OFFSET 3.362410 1.200890 -0.311210 
				CHANNELS 3 Zrotation Yrotation Xrotation
				JOINT LeftForeArm
				{
					OFFSET 4.983000 -0.000000 -0.000000 
					CHANNELS 3 Zrotation Yrotation Xrotation
					JOINT LeftHand
					{
						OFFSET 3.483560 -0.000000 -0.000000 
						CHANNELS 3 Zrotation Yrotation Xrotation
						JOINT LeftHandIndex1
						{
							OFFSET 0.715260 -0.000000 -0.000000 
							CHANNELS 3 Zrotation Yrotation Xrotation
							End Site
							{
								OFFSET 0.000000 0.000000 0.000000 
							}
						}
					}
				}
			}
			JOINT RightArm
			{
				OFFSET -3.136600 1.374050 -0.404650 
				CHANNELS 3 Zrotation Yrotation Xrotation
				JOINT RightForeArm
				{
					OFFSET -5.241900 -0.000000 -0.000000 
					CHANNELS 3 Zrotation Yrotation Xrotation
					JOINT RightHand
					{
						OFFSET -3.444170 -0.000000 -0.000000 
						CHANNELS 3 Zrotation Yrotation Xrotation
						JOINT RightHandIndex1
						{
							OFFSET -0.622530 -0.000000 -0.000000 
							CHANNELS 3 Zrotation Yrotation Xrotation
							End Site
							{
								OFFSET 0.000000 0.000000 0.000000 
							}
						}
					}
				}
			}
		}
	}
}
MOTION
Frames: 19
Frame Time: 0.041667
39.332896 17.780609 5.304891 -92.370587 -84.706937 102.002263 -7.816429 -7.481003 -6.377482 -0.417368 4.240905 10.538001 0.071490 4.188770 10.778525 0.000000 0.000000 0.000000 24.507003 6.479115 -7.636489 -0.245937 -5.653857 14.405665 -0.089510 -3.297172 8.065982 0.000000 0.000000 0.000000 1.260985 -0.101890 -4.215062 -0.669750 -0.259746 -1.019178 2.240927 0.426467 -3.426565 0.000000 0.000000 0.000000 -1.116691 -0.271110 0.001554 -1.426000 -0.369487 0.000018 -0.029010 -0.006996 0.000009 0.000000 0.000000 0.000000 -0.343038 2.683913 0.022661 1.683847 0.696895 0.000145 0.114770 0.036185 0.000073 0.000000 0.000000 0.000000 
39.328706 17.781607 5.299703 -92.480589 -84.691658 102.127251 -7.776994 -7.521664 -6.350189 -0.419078 4.231499 10.511949 0.071536 4.189690 10.780090 0.000000 0.000000 0.000000 24.549832 6.528373 -7.612714 -0.244064 -5.646372 14.384628 -0.089541 -3.296920 8.065056 0.000000 0.000000 0.000000 1.260954 -0.101593 -4.215057 -0.669757 -0.259456 -1.019169 2.240954 0.426470 -3.426570 0.000000 0.000000 0.000000 -1.116696 -0.271088 0.001554 -1.426001 -0.369486 0.000018 -0.029009 -0.006995 0.000009 0.000000 0.000000 0.000000 -0.343047 2.683934 0.022661 1.683847 0.696897 0.000145 0.114771 0.036186 0.000073 0.000000 0.000000 0.000000 
39.324017 17.782006 5.295014 -92.904893 -84.692620 102.563061 -7.773526 -7.523008 -6.328873 -0.420658 4.224308 10.489655 0.071742 4.190506 10.779461 0.000000 0.000000 0.000000 24.570575 6.552623 -7.589194 -0.242975 -5.640531 14.369855 -0.089468 -3.296336 8.064683 0.000000 0.000000 0.000000 1.260812 -0.100317 -4.215003 -0.669782 -0.258175 -1.019141 2.241078 0.426484 -3.426591 0.000000 0.000000 0.000000 -1.116719 -0.270999 0.001554 -1.426002 -0.369483 0.000018 -0.029009 -0.006995 0.000009 0.000000 0.000000 0.000000 -0.343087 2.684033 0.022661 1.683844 0.696904 0.000145 0.114771 0.036186 0.000073 0.000000 0.000000 0.000000 
39.319528 17.782106 5.290625 -93.533198 -84.709732 103.221471 -7.784356 -7.514622 -6.323852 -0.424036 4.209262 10.444477 0.072099 4.191781 10.778191 0.000000 0.000000 0.000000 24.561664 6.622587 -7.581451 -0.242126 -5.636413 14.360549 -0.089349 -3.295683 8.064954 0.000000 0.000000 0.000000 1.260591 -0.098311 -4.214915 -0.669823 -0.256154 -1.019096 2.241274 0.426506 -3.426624 0.000000 0.000000 0.000000 -1.116754 -0.270859 0.001554 -1.426006 -0.369479 0.000018 -0.029007 -0.006996 0.000009 0.000000 0.000000 0.000000 -0.343151 2.684189 0.022661 1.683839 0.696914 0.000145 0.114771 0.036186 0.000073 0.000000 0.000000 0.000000 
39.314340 17.781906 5.285936 -93.848034 -84.688438 103.563326 -7.747341 -7.528985 -6.304546 -0.427472 4.190617 10.391718 0.072288 4.193301 10.779553 0.000000 0.000000 0.000000 24.605995 6.627100 -7.583888 -0.242144 -5.635785 14.359527 -0.089321 -3.295205 8.064302 0.000000 0.000000 0.000000 1.260492 -0.097406 -4.214882 -0.669842 -0.255252 -1.019074 2.241360 0.426516 -3.426639 0.000000 0.000000 0.000000 -1.116770 -0.270795 0.001554 -1.426007 -0.369477 0.000018 -0.029006 -0.006995 0.000009 0.000000 0.000000 0.000000 -0.343179 2.684258 0.022660 1.683837 0.696919 0.000145 0.114771 0.036186 0.000073 0.000000 0.000000 0.000000 
39.309651 17.781607 5.281546 -94.538370 -84.707023 104.285793 -7.736517 -7.638295 -6.243398 -0.448243 4.085365 10.097428 0.073149 4.196964 10.777455 0.000000 0.000000 0.000000 24.595037 6.678620 -7.586049 -0.242688 -5.636880 14.365290 -0.089199 -3.294503 8.064729 0.000000 0.000000 0.000000 1.260258 -0.095183 -4.214808 -0.669892 -0.253005 -1.019016 2.241578 0.426541 -3.426675 0.000000 0.000000 0.000000 -1.116810 -0.270636 0.001554 -1.426010 -0.369472 0.000018 -0.029005 -0.006996 0.000009 0.000000 0.000000 0.000000 -0.343249 2.684430 0.022660 1.683831 0.696931 0.000145 0.114772 0.036186 0.000073 0.000000 0.000000 0.000000 
39.304662 17.781707 5.276657 -95.062483 -84.707680 104.841465 -7.723972 -7.584171 -6.258669 -0.446873 4.091838 10.112621 0.073325 4.198060 10.778188 0.000000 0.000000 0.000000 24.613137 6.720012 -7.557111 -0.238708 -5.619232 14.317349 -0.089135 -3.293927 8.064283 0.000000 0.000000 0.000000 1.260073 -0.093584 -4.214732 -0.669921 -0.251404 -1.018983 2.241732 0.426559 -3.426702 0.000000 0.000000 0.000000 -1.116839 -0.270525 0.001555 -1.426013 -0.369468 0.000018 -0.029003 -0.006996 0.000009 0.000000 0.000000 0.000000 -0.343300 2.684554 0.022659 1.683827 0.696939 0.000145 0.114772 0.036187 0.000073 0.000000 0.000000 0.000000 
39.300472 17.781807 5.272667 -95.584460 -84.709175 105.384115 -7.745448 -7.399777 -6.317992 -0.427820 4.189223 10.378574 0.073022 4.196501 10.778646 0.000000 0.000000 0.000000 24.620750 6.743455 -7.557607 -0.239038 -5.619131 14.319433 -0.089000 -3.293264 8.064355 0.000000 0.000000 0.000000 1.259884 -0.092072 -4.214636 -0.669942 -0.249902 -1.018961 2.241876 0.426575 -3.426729 0.000000 0.000000 0.000000 -1.116865 -0.270424 0.001555 -1.426015 -0.369464 0.000018 -0.029003 -0.006995 0.000009 0.000000 0.000000 0.000000 -0.343349 2.684672 0.022659 1.683824 0.696946 0.000145 0.114772 0.036187 0.000073 0.000000 0.000000 0.000000 
39.295284 17.781607 5.267878 -95.967980 -84.698810 105.797932 -7.705605 -7.381505 -6.314222 -0.431299 4.169537 10.322804 0.073253 4.198350 10.780414 0.000000 0.000000 0.000000 24.646608 6.766700 -7.561312 -0.238810 -5.617743 14.316281 -0.088954 -3.292802 8.064029 0.000000 0.000000 0.000000 1.259756 -0.090944 -4.214592 -0.669964 -0.248778 -1.018935 2.241983 0.426587 -3.426748 0.000000 0.000000 0.000000 -1.116886 -0.270345 0.001555 -1.426016 -0.369462 0.000018 -0.029002 -0.006995 0.000009 0.000000 0.000000 0.000000 -0.343385 2.684758 0.022659 1.683822 0.696952 0.000145 0.114772 0.036187 0.000073 0.000000 0.000000 0.000000 
39.291094 17.781308 5.263787 -96.212422 -84.715240 106.076511 -7.709021 -7.369791 -6.333761 -0.431363 4.170073 10.322916 0.073366 4.198911 10.780518 0.000000 0.000000 0.000000 24.637684 6.792194 -7.565884 -0.237660 -5.612517 14.302705 -0.088910 -3.292591 8.064240 0.000000 0.000000 0.000000 1.259657 -0.090067 -4.214550 -0.669981 -0.247895 -1.018917 2.242069 0.426597 -3.426762 0.000000 0.000000 0.000000 -1.116901 -0.270284 0.001555 -1.426017 -0.369460 0.000018 -0.029001 -0.006995 0.000009 0.000000 0.000000 0.000000 -0.343413 2.684827 0.022659 1.683820 0.696957 0.000145 0.114773 0.036187 0.000073 0.000000 0.000000 0.000000 
39.287004 17.781208 5.260296 -96.044938 -84.697887 105.934482 -7.656326 -7.465120 -6.310926 -0.440932 4.120002 10.185948 0.073523 4.200698 10.782831 0.000000 0.000000 0.000000 24.675385 6.790669 -7.580744 -0.237479 -5.612190 14.300720 -0.088998 -3.292733 8.063578 0.000000 0.000000 0.000000 1.259719 -0.090525 -4.214588 -0.669976 -0.248355 -1.018921 2.242025 0.426592 -3.426753 0.000000 0.000000 0.000000 -1.116893 -0.270314 0.001555 -1.426017 -0.369461 0.000018 -0.029001 -0.006995 0.000009 0.000000 0.000000 0.000000 -0.343398 2.684790 0.022659 1.683821 0.696954 0.000145 0.114773 0.036187 0.000073 0.000000 0.000000 0.000000 
39.284310 17.780809 5.256105 -96.355499 -84.692419 106.282004 -7.629053 -7.366535 -6.375406 -0.434888 4.149230 10.265361 0.073471 4.201469 10.785908 0.000000 0.000000 0.000000 24.695566 6.728409 -7.638283 -0.237177 -5.610388 14.296476 -0.088963 -3.292524 8.063633 0.000000 0.000000 0.000000 1.259603 -0.089573 -4.214533 -0.669991 -0.247409 -1.018906 2.242115 0.426603 -3.426768 0.000000 0.000000 0.000000 -1.116910 -0.270249 0.001555 -1.426018 -0.369458 0.000018 -0.029001 -0.006995 0.000009 0.000000 0.000000 0.000000 -0.343429 2.684864 0.022659 1.683819 0.696959 0.000145 0.114773 0.036187 0.000073 0.000000 0.000000 0.000000 
39.279122 17.780110 5.253611 -96.097720 -84.707437 106.050140 -7.637855 -7.360134 -6.379614 -0.431427 4.166981 10.315591 0.073294 4.200529 10.785775 0.000000 0.000000 0.000000 24.690191 6.713135 -7.649021 -0.235763 -5.604970 14.280147 -0.089031 -3.292908 8.063638 0.000000 0.000000 0.000000 1.259673 -0.090187 -4.214556 -0.669979 -0.248027 -1.018921 2.242056 0.426596 -3.426758 0.000000 0.000000 0.000000 -1.116899 -0.270293 0.001555 -1.426017 -0.369460 0.000018 -0.029001 -0.006995 0.000009 0.000000 0.000000 0.000000 -0.343409 2.684817 0.022659 1.683820 0.696956 0.000145 0.114773 0.036187 0.000073 0.000000 0.000000 0.000000 
39.276428 17.780011 5.250818 -96.109954 -84.726972 106.087926 -7.639693 -7.379283 -6.388031 -0.432285 4.163941 10.306781 0.073330 4.200746 10.785860 0.000000 0.000000 0.000000 24.675339 6.683181 -7.669125 -0.233698 -5.596400 14.256257 -0.089047 -3.293081 8.063933 0.000000 0.000000 0.000000 1.259652 -0.089988 -4.214546 -0.669983 -0.247823 -1.018917 2.242076 0.426598 -3.426761 0.000000 0.000000 0.000000 -1.116902 -0.270279 0.001555 -1.426018 -0.369459 0.000018 -0.029001 -0.006995 0.000009 0.000000 0.000000 0.000000 -0.343416 2.684832 0.022659 1.683820 0.696957 0.000145 0.114773 0.036187 0.000073 0.000000 0.000000 0.000000 
39.272837 17.779312 5.247525 -96.106330 -84.728025 106.119561 -7.604764 -7.470254 -6.379128 -0.443969 4.103847 10.140796 0.073637 4.202894 10.787262 0.000000 0.000000 0.000000 24.680655 6.684954 -7.711779 -0.234433 -5.599998 14.266018 -0.089084 -3.293209 8.064055 0.000000 0.000000 0.000000 1.259648 -0.089849 -4.214556 -0.669991 -0.247677 -1.018908 2.242091 0.426600 -3.426761 0.000000 0.000000 0.000000 -1.116905 -0.270267 0.001555 -1.426018 -0.369458 0.000018 -0.029000 -0.006995 0.000009 0.000000 0.000000 0.000000 -0.343419 2.684842 0.022659 1.683819 0.696958 0.000145 0.114773 0.036187 0.000073 0.000000 0.000000 0.000000 
39.270043 17.779113 5.243635 -96.514919 -84.731444 106.555889 -7.600382 -7.353826 -6.439823 -0.432773 4.161627 10.298556 0.073475 4.202637 10.789116 0.000000 0.000000 0.000000 24.680106 6.667561 -7.791960 -0.242809 -5.633945 14.362971 -0.088912 -3.292606 8.064958 0.000000 0.000000 0.000000 1.259500 -0.088619 -4.214483 -0.670011 -0.246453 -1.018890 2.242208 0.426613 -3.426781 0.000000 0.000000 0.000000 -1.116927 -0.270185 0.001555 -1.426020 -0.369455 0.000018 -0.029000 -0.006995 0.000009 0.000000 0.000000 0.000000 -0.343459 2.684939 0.022658 1.683817 0.696963 0.000145 0.114773 0.036187 0.000073 0.000000 0.000000 0.000000 
39.266252 17.777816 5.239444 -96.665802 -84.741938 106.755259 -7.582293 -7.335983 -6.474610 -0.432380 4.163413 10.302812 0.073521 4.203495 10.790912 0.000000 0.000000 0.000000 24.677574 6.685790 -7.867261 -0.248184 -5.656352 14.426338 -0.088855 -3.292451 8.065612 0.000000 0.000000 0.000000 1.259434 -0.087999 -4.214453 -0.670024 -0.245833 -1.018878 2.242268 0.426620 -3.426790 0.000000 0.000000 0.000000 -1.116938 -0.270142 0.001555 -1.426021 -0.369453 0.000018 -0.028999 -0.006994 0.000009 0.000000 0.000000 0.000000 -0.343479 2.684987 0.022658 1.683816 0.696966 0.000145 0.114773 0.036187 0.000073 0.000000 0.000000 0.000000 
39.263060 17.776519 5.236152 -96.961676 -84.760393 107.092494 -7.583913 -7.330478 -6.497933 -0.433924 4.157025 10.283460 0.073686 4.204367 10.791143 0.000000 0.000000 0.000000 24.652795 6.702632 -7.957361 -0.256455 -5.690457 14.523178 -0.088724 -3.292124 8.066889 0.000000 0.000000 0.000000 1.259318 -0.086941 -4.214405 -0.670046 -0.244768 -1.018856 2.242371 0.426632 -3.426806 0.000000 0.000000 0.000000 -1.116957 -0.270069 0.001556 -1.426022 -0.369450 0.000018 -0.028998 -0.006994 0.000009 0.000000 0.000000 0.000000 -0.343514 2.685070 0.022658 1.683814 0.696971 0.000145 0.114773 0.036187 0.000073 0.000000 0.000000 0.000000 
39.259568 17.774823 5.232062 -97.127951 -84.800816 107.310447 -7.599085 -7.335022 -6.544308 -0.436739 4.145305 10.249651 0.073851 4.205142 10.791191 0.000000 0.000000 0.000000 24.606106 6.697608 -8.095003 -0.269838 -5.745118 14.678037 -0.088554 -3.291883 8.068951 0.000000 0.000000 0.000000 1.259233 -0.086100 -4.214365 -0.670065 -0.243913 -1.018840 2.242455 0.426642 -3.426817 0.000000 0.000000 0.000000 -1.116971 -0.270011 0.001556 -1.426024 -0.369447 0.000018 -0.028997 -0.006994 0.000009 0.000000 0.000000 0.000000 -0.343541 2.685137 0.022658 1.683812 0.696975 0.000145 0.114774 0.036188 0.000073 0.000000 0.000000 0.000000 
